<?xml version="1.0" encoding="iso-8859-1"?>
<!-- Uploaded to: SVG Repo, www.svgrepo.com, Generator: SVG Repo Mixer Tools -->
<svg version="1.1" id="Layer_1" xmlns="http://www.w3.org/2000/svg" xmlns:xlink="http://www.w3.org/1999/xlink" 
	 viewBox="0 0 512 512" xml:space="preserve">
<g>
	<path style="fill:#7E8488;" d="M375.688,369.039c0,16.49-3.325,32.183-9.442,46.545C348.16,372.63,305.604,342.442,256,342.442
		s-92.16,30.188-110.246,73.143c-6.117-14.363-9.442-30.055-9.442-46.545c0-66.095,53.594-119.688,119.688-119.688
		S375.688,302.944,375.688,369.039z"/>
	<path style="fill:#7E8488;" d="M355.74,116.364c33.114,0,59.844,17.82,59.844,39.896s-26.73,39.896-59.844,39.896
		s-59.844-17.82-59.844-39.896S322.626,116.364,355.74,116.364z"/>
	<path style="fill:#7E8488;" d="M156.26,116.364c33.114,0,59.844,17.82,59.844,39.896s-26.73,39.896-59.844,39.896
		s-59.844-17.82-59.844-39.896S123.146,116.364,156.26,116.364z"/>
</g>
<path style="fill:#FFD311;" d="M482.078,435.532c0,36.704-29.789,66.493-66.493,66.493H96.416
	c-36.704,0-66.493-29.789-66.493-66.493V9.974h452.156V435.532z M415.584,156.26c0-22.076-26.73-39.896-59.844-39.896
	s-59.844,17.82-59.844,39.896s26.73,39.896,59.844,39.896S415.584,178.336,415.584,156.26z M366.246,415.584
	c6.117-14.363,9.442-30.055,9.442-46.545c0-66.095-53.594-119.688-119.688-119.688s-119.688,53.594-119.688,119.688
	c0,16.49,3.325,32.183,9.442,46.545C163.84,372.63,206.396,342.442,256,342.442S348.16,372.63,366.246,415.584z M216.104,156.26
	c0-22.076-26.73-39.896-59.844-39.896s-59.844,17.82-59.844,39.896s26.73,39.896,59.844,39.896S216.104,178.336,216.104,156.26z"/>
<path style="fill:#FABB1B;" d="M366.246,415.584C348.16,372.63,305.604,342.442,256,342.442s-92.16,30.188-110.246,73.143
	c-6.117-14.363-9.442-30.055-9.442-46.545c0-53.751,35.448-99.227,84.235-114.342c-15.775-19.191-29.926-39.744-42.459-61.362
	c-6.774,1.77-14.099,2.821-21.828,2.821c-33.114,0-59.844-17.82-59.844-39.896c0-18.999,19.846-34.772,46.472-38.82
	C130.741,83.295,122.453,47.315,118.7,9.974H29.922v425.558c0,36.704,29.789,66.493,66.493,66.493h319.169
	c36.704,0,66.493-29.789,66.493-66.493V412.79c-37.468-7.707-73.256-19.98-106.77-36.204
	C374.45,390.309,371.418,403.441,366.246,415.584z"/>
<path d="M472.104,435.532c0,31.165-25.354,56.519-56.519,56.519H96.416c-31.166,0-56.519-25.354-56.519-56.519V66.494h156.26V46.545
	H39.896V19.948h96.416V0H19.948v435.532c0,42.165,34.303,76.468,76.468,76.468h319.169c42.165,0,76.468-34.303,76.468-76.468V259.99
	h-19.948V435.532z"/>
<polygon points="162.91,0 162.91,19.948 472.104,19.948 472.104,46.545 315.844,46.545 315.844,66.494 472.104,66.494 
	472.104,236.052 492.052,236.052 492.052,0 "/>
<path d="M156.26,106.39c-39.15,0-69.818,21.906-69.818,49.87s30.668,49.87,69.818,49.87s69.818-21.906,69.818-49.87
	S195.41,106.39,156.26,106.39z M156.26,186.182c-27.032,0-49.87-13.703-49.87-29.922s22.838-29.922,49.87-29.922
	s49.87,13.703,49.87,29.922S183.292,186.182,156.26,186.182z"/>
<path d="M425.558,156.26c0-27.965-30.668-49.87-69.818-49.87s-69.818,21.906-69.818,49.87s30.668,49.87,69.818,49.87
	S425.558,184.224,425.558,156.26z M305.87,156.26c0-16.219,22.838-29.922,49.87-29.922c27.032,0,49.87,13.703,49.87,29.922
	s-22.838,29.922-49.87,29.922C328.708,186.182,305.87,172.479,305.87,156.26z"/>
<path d="M126.338,369.039c0,17.526,3.446,34.501,10.239,50.454l9.228,21.669l9.14-21.706c17.149-40.726,56.815-67.04,101.055-67.04
	s83.907,26.314,101.054,67.04l9.14,21.706l9.228-21.669c6.793-15.953,10.239-32.928,10.239-50.454
	c0-71.496-58.166-129.662-129.662-129.662S126.338,297.542,126.338,369.039z M256,259.325c60.496,0,109.714,49.217,109.714,109.714
	c0,7.09-0.665,14.07-1.987,20.896C340,354.4,299.906,332.468,256,332.468s-84,21.932-107.727,57.468
	c-1.322-6.826-1.987-13.807-1.987-20.896C146.286,308.542,195.504,259.325,256,259.325z"/>
<rect x="236.052" y="46.545" style="fill:#FFFFFF;" width="39.896" height="19.948"/>
<rect x="59.844" y="216.104" width="19.948" height="132.987"/>
<rect x="59.844" y="369.039" style="fill:#FFFFFF;" width="19.948" height="26.597"/>
</svg>